<!DOCTYPE svg PUBLIC "-//W3C//DTD SVG 1.1//EN" "http://www.w3.org/Graphics/SVG/1.1/DTD/svg11.dtd">
<!-- Uploaded to: SVG Repo, www.svgrepo.com, Transformed by: SVG Repo Mixer Tools -->
<svg fill="#91959c" width="256px" height="256px" viewBox="-76.8 -76.8 665.60 665.60" id="_11_Search" data-name="11 Search" xmlns="http://www.w3.org/2000/svg" stroke="#91959c" stroke-width="0.00512" transform="rotate(0)matrix(1, 0, 0, 1, 0, 0)">
<g id="SVGRepo_bgCarrier" stroke-width="0"/>
<g id="SVGRepo_tracerCarrier" stroke-linecap="round" stroke-linejoin="round" stroke="#CCCCCC" stroke-width="20.48"/>
<g id="SVGRepo_iconCarrier"> <path id="Path_16" data-name="Path 16" d="M497.914,497.913a48.085,48.085,0,0,1-68.008,0L345.043,413.05a222.6,222.6,0,0,1-120.659,35.717C100.469,448.767,0,348.313,0,224.383S100.469,0,224.384,0C348.315,0,448.768,100.452,448.768,224.383A222.872,222.872,0,0,1,413.05,345.059l84.864,84.863A48.066,48.066,0,0,1,497.914,497.913Zm-273.53-433.8A160.274,160.274,0,1,0,384.658,224.382,160.271,160.271,0,0,0,224.384,64.109Z" fill-rule="evenodd"/> </g>
</svg>